<?xml version="1.0" encoding="iso-8859-1"?>
<!-- Uploaded to: SVG Repo, www.svgrepo.com, Generator: SVG Repo Mixer Tools -->
<svg height="800px" width="800px" version="1.1" id="Layer_1" xmlns="http://www.w3.org/2000/svg" xmlns:xlink="http://www.w3.org/1999/xlink" 
	 viewBox="0 0 512 512" xml:space="preserve">
<polygon style="fill:#CFDCE5;" points="420.92,173.971 419.904,174.989 419.904,503.072 91.845,503.072 91.845,174.989 
	90.828,173.971 255.874,8.949 "/>
<polyline style="fill:#FF6F52;" points="402.977,156.05 402.977,23.48 326.714,23.48 326.714,79.787 "/>
<path style="fill:#BAC6CC;" d="M255.874,253.256L255.874,253.256c-50.686,0-91.775,41.089-91.775,91.775V503.06h183.55V345.031
	C347.649,294.345,306.56,253.256,255.874,253.256z"/>
<path d="M494.301,234.599L335.784,76.082V32.419h58.384v89.013c0,4.937,4.001,8.939,8.939,8.939c4.938,0,8.939-4.002,8.939-8.939
	V23.48c0-4.937-4.001-8.939-8.939-8.939h-76.263c-4.938,0-8.939,4.002-8.939,8.939v34.723L262.322,2.619
	C260.644,0.942,258.371,0,256.001,0c-2.371,0-4.644,0.942-6.322,2.619l-68.836,68.836c-3.491,3.491-3.491,9.151,0,12.641
	s9.15,3.492,12.642,0l62.514-62.516l155.095,155.095v317.445H356.72v-76.384c0-4.937-4.001-8.939-8.939-8.939
	s-8.939,4.002-8.939,8.939v76.384H173.169V345.031c0-45.675,37.161-82.836,82.836-82.836s82.836,37.161,82.836,82.836v42.908
	c0,4.937,4.001,8.939,8.939,8.939s8.939-4.002,8.939-8.939v-42.908c0-55.533-45.18-100.714-100.714-100.714
	s-100.714,45.181-100.714,100.714v149.089h-54.386V176.675l72.021-72.021c3.491-3.491,3.491-9.151,0-12.641
	c-3.492-3.491-9.151-3.491-12.642,0L17.699,234.599c-3.491,3.491-3.491,9.151,0,12.641c1.746,1.745,4.035,2.619,6.322,2.619
	s4.576-0.872,6.322-2.619l52.685-52.685v308.506c0,4.937,4.001,8.939,8.939,8.939h72.264h183.55h72.254
	c4.938,0,8.939-4.002,8.939-8.939V194.555l52.685,52.685c1.746,1.745,4.035,2.619,6.322,2.619s4.576-0.872,6.322-2.619
	C497.792,243.749,497.792,238.088,494.301,234.599z"/>
<circle cx="199.129" cy="398.673" r="8.939"/>
</svg>